<?xml version="1.0" encoding="utf-8"?>
<!-- Generator: Adobe Illustrator 24.1.0, SVG Export Plug-In . SVG Version: 6.00 Build 0)  -->
<svg version="1.1" id="Layer_1" xmlns="http://www.w3.org/2000/svg" xmlns:xlink="http://www.w3.org/1999/xlink" x="0px" y="0px"
	 viewBox="0 0 875 875" style="enable-background:new 0 0 16 16;" xml:space="preserve">
<style type="text/css">
	.st0{display:none;}
	.st1{display:inline;fill:#444444;}
	.st2{stroke:#000000;stroke-width:3;stroke-miterlimit:10;}
	.st3{stroke:#000000;stroke-width:4;stroke-miterlimit:10;}
</style>
<g class="st0">
	<path class="st1" d="M730.96,605.18H752v-51.58h-25.82c3.84,11.61,5.91,24.31,5.91,37.67C732.09,596.02,731.5,600.55,730.96,605.18
		L730.96,605.18z"/>
	<path class="st1" d="M531.56,553.59H370.28v51.58h155.32c-0.56-4.62-1.37-9.16-1.37-13.92
		C524.25,577.91,526.88,565.2,531.56,553.59L531.56,553.59z"/>
	<path class="st1" d="M627.18,487.07c40,0,53.92,16.39,72.08,35.57H752V248.65H370.28v273.99h184.79
		C573.23,503.46,587.17,487.07,627.18,487.07L627.18,487.07z"/>
	<path class="st1" d="M287.19,443.81H143.6c-2.58-52.43,28.37-87.69,28.37-87.69l116.07,0.85L287.19,443.81L287.19,443.81z
		 M300.83,331.19H172.13c-20.53,0-43.42,34.81-43.42,34.81s-34.55,49.69-34.55,75.98c0,16.8,0,83.84,0,123.87
		c0,22.3,16.23,38.74,37.06,38.74c6.3,0,23.95,0,45.36,0c-0.58-4.08-1.24-8.3-1.24-12.57c0-50.42,40.62-99.41,90.76-99.41
		c26.03,0,55.24,11.16,71.78,28.91V370.47C337.89,348.73,321.3,331.19,300.83,331.19L300.83,331.19z"/>
	<path class="st1" d="M271.7,525.48c37.04,0,67.07,30.02,67.07,67.07c0,37.05-30.04,67.06-67.07,67.06
		c-37.05,0-67.07-30.01-67.07-67.06C204.63,555.5,234.65,525.48,271.7,525.48L271.7,525.48z"/>
	<path class="st1" d="M629.35,525.48c37.02,0,67.06,30.02,67.06,67.07c0,37.05-30.04,67.06-67.06,67.06
		c-37.05,0-67.06-30.01-67.06-67.06C562.29,555.5,592.3,525.48,629.35,525.48L629.35,525.48z"/>
</g>
<path class="st2" d="M48.61,376.15c-15.67,28.17-24.55,53.4-25.04,54.79c-0.54,3.96-22.31,164.58-0.12,192.9
	c11.6,14.8,21.32,19.74,27.43,21.27c6.57,1.65,10.47-0.18,10.51-0.2l0.28-0.06h63.1V628.7c0-7.77,2.72-33.77,15.16-60.37
	c15.11-32.32,39.04-52.65,69.22-58.78c65.49-13.3,114.77,28.01,122.51,34.97c0.3-17.18,3.13-183.13-0.02-203.09
	c-3.18-20.14-31.3-39.6-33.17-40.88c-4.37-0.98-123.02-27.18-180.61-0.02C87.4,314.9,63.39,349.58,48.61,376.15z M259.91,328.71
	v94.57H87.93c-0.57-4.54-1.73-18.43,2.75-34.78c7.26-26.5,25.11-46.61,53.05-59.79H259.91z"/>
<circle class="st3" cx="249.97" cy="635.42" r="84.42"/>
<circle class="st3" cx="703.67" cy="635.42" r="84.42"/>
<path class="st3" d="M580.5,587.33c0,0-12.3,19.01-10.06,36.9c2.24,17.89,4.9,22.84,4.9,22.84H377v-59.74H580.5z"/>
<path class="st3" d="M829.85,587.33c0,0,6.71,17.89,7.83,35.78c1.12,17.89-3.91,23.96-3.91,23.96h27.73v-59.74H829.85z"/>
<g>
	<path class="st3" d="M377,196v349.95h233.69c0,0,24.6-73.8,93.93-73.8s89.45,73.8,89.45,73.8h67.42V196H377z M616.48,453.29
		l-10.74-35.45H530.4l-10.47,35.45h-67.75l80.71-214.75h72.38l80.69,214.75H616.48z"/>
	<polygon class="st3" points="544.81,371.4 591.97,371.4 568.26,294.21 	"/>
</g>
</svg>
